HIERARCHY
ROOT hip
{
	OFFSET 0.000000 0.000000 0.000000 
	CHANNELS 6 Xposition Yposition Zposition Xrotation Zrotation Yrotation
	JOINT abdomen
	{
		OFFSET 0.000000 3.402643 0.000000 
		CHANNELS 3 Xrotation Zrotation Yrotation
		JOINT chest
		{
			OFFSET 0.000000 8.438565 -0.680529 
			CHANNELS 3 Xrotation Zrotation Yrotation
			JOINT neck
			{
				OFFSET 0.000000 10.207942 -0.272212 
				CHANNELS 3 Xrotation Zrotation Yrotation
				JOINT head
				{
					OFFSET 0.000000 3.130431 0.000000 
					CHANNELS 3 Xrotation Zrotation Yrotation
					End Site
					{
						OFFSET 0.000000 3.130435 0.000000 
					}
				}
			}
			JOINT lCollar
			{
				OFFSET 3.470700 6.669187 -0.816635 
				CHANNELS 3 Yrotation Zrotation Xrotation
				JOINT lShldr
				{
					OFFSET 3.198488 0.000000 0.000000 
					CHANNELS 3 Zrotation Yrotation Xrotation
					JOINT lForeArm
					{
						OFFSET 10.139888 0.000000 0.000000 
						CHANNELS 3 Yrotation Zrotation Xrotation
						JOINT lHand
						{
							OFFSET 8.370511 0.000000 0.000000 
							CHANNELS 3 Zrotation Yrotation Xrotation
							End Site
							{
								OFFSET 4.083176 0.000000 0.000000 
							}
						}
					}
				}
			}
			JOINT rCollar
			{
				OFFSET -3.470700 6.669187 -0.816635 
				CHANNELS 3 Yrotation Zrotation Xrotation
				JOINT rShldr
				{
					OFFSET -3.198488 0.000000 0.000000 
					CHANNELS 3 Zrotation Yrotation Xrotation
					JOINT rForeArm
					{
						OFFSET -10.139888 0.000000 0.000000 
						CHANNELS 3 Yrotation Zrotation Xrotation
						JOINT rHand
						{
							OFFSET -8.370511 0.000000 0.000000 
							CHANNELS 3 Zrotation Yrotation Xrotation
							End Site
							{
								OFFSET -4.083176 0.000000 0.000000 
							}
						}
					}
				}
			}
		}
	}
	JOINT lThigh
	{
		OFFSET 5.308129 -1.633274 1.361059 
		CHANNELS 3 Xrotation Zrotation Yrotation
		JOINT lShin
		{
			OFFSET -2.041588 -20.007561 0.000000 
			CHANNELS 3 Xrotation Zrotation Yrotation
			JOINT lFoot
			{
				OFFSET 0.000000 -19.190928 -1.224953 
				CHANNELS 3 Xrotation Yrotation Zrotation
				End Site
				{
					OFFSET 0.000000 -2.449906 4.627600 
				}
			}
		}
	}
	JOINT rThigh
	{
		OFFSET -5.308129 -1.633274 1.361059 
		CHANNELS 3 Xrotation Zrotation Yrotation
		JOINT rShin
		{
			OFFSET 2.041588 -20.007561 0.000000 
			CHANNELS 3 Xrotation Zrotation Yrotation
			JOINT rFoot
			{
				OFFSET 0.000000 -19.190928 -1.224953 
				CHANNELS 3 Xrotation Yrotation Zrotation
				End Site
				{
					OFFSET 0.000000 -2.449906 4.627600 
				}
			}
		}
	}
}
MOTION
Frames: 19
Frame Time: 0.033333
-59.431091 28.826485 34.483448 3.814591 8.921547 96.454849 0.000000 0.000000 0.000000 44.407097 14.891228 -3.100544 14.693933 -0.846216 10.040119 20.710951 8.675668 9.672554 -3.521967 9.154817 6.304141 -100.548103 12.282577 -6.536363 -73.347733 5.972174 4.459324 18.676464 -1.676207 -9.908731 3.089181 -14.089146 8.026228 94.505829 -14.368467 -18.801693 78.869637 1.613906 39.318459 -41.824230 -22.510883 -5.349456 -36.366138 53.577091 19.628820 104.727310 2.679501 -32.379749 -27.305082 -4.738355 16.271988 -58.704102 -46.060249 6.265574 95.112831 -12.243467 21.985798 -16.786564 2.387928 -12.296378 
-59.338406 29.373907 34.442680 4.103071 8.836813 96.081612 0.000000 0.000000 0.000000 42.844982 12.687739 -3.802510 9.100220 -2.549450 4.848500 24.279490 10.404073 4.062396 -3.521967 9.154817 6.304141 -96.567528 2.458069 4.268667 -70.635918 10.859059 11.463395 19.395468 -1.694240 -9.998062 3.089181 -14.089146 8.026228 92.033562 -5.255887 -18.958969 76.679070 1.774639 39.237026 -41.839016 -21.444956 -5.715959 -34.355125 52.592472 21.171217 103.236900 2.653089 -31.770622 -26.927387 -4.597596 15.949463 -57.658539 -45.678978 5.642335 93.753357 -12.408203 21.772501 -16.116837 2.274204 -12.035129 
-59.282585 29.929436 34.405670 4.256473 10.014711 95.108604 0.000000 0.000000 0.000000 42.913193 9.694565 -5.358833 4.612425 -4.529389 -1.646297 26.906588 9.755492 -2.634530 -3.521967 9.154817 6.304141 -90.125893 -9.777737 12.266025 -72.944901 11.785823 14.429036 18.440208 0.618327 -9.651265 3.089181 -14.089146 8.026228 86.933426 7.418049 -19.750780 77.105820 4.228284 33.993744 -42.570126 -20.431822 -5.980174 -30.878817 51.811028 22.658585 101.656662 2.683771 -31.585629 -26.482519 -4.426097 15.600636 -55.388935 -44.744995 4.995340 91.967445 -12.672463 22.318605 -15.459356 2.140239 -11.807351 
-59.337147 30.595171 34.281124 3.763202 11.145380 94.238266 0.000000 0.000000 0.000000 42.070923 9.472996 -8.652551 4.582456 -10.785390 -5.270500 27.269466 12.259884 -8.204707 -3.521967 9.154817 6.304141 -83.196304 -24.899956 13.450670 -75.800514 10.991493 15.705381 18.793304 0.954041 -9.658414 3.089181 -14.089146 8.026228 77.472633 22.392376 -23.979113 82.481163 9.061168 32.065079 -38.676086 -21.705307 -5.919215 -28.730398 50.695534 22.755486 100.087158 2.787172 -30.123331 -25.814611 -4.149010 15.019743 -52.403481 -43.499905 3.474814 89.507912 -12.888277 22.683487 -14.371720 1.955499 -11.399389 
-59.504856 31.313938 33.997467 3.078120 11.922040 94.040222 0.000000 0.000000 0.000000 40.783054 11.114750 -9.922774 4.592769 -16.236578 -8.477044 28.156466 16.409557 -12.986785 -3.521967 9.154817 6.304141 -77.457817 -43.779045 9.535801 -77.189728 9.129338 19.048813 17.817593 2.857542 -9.384335 3.089181 -14.089146 8.026228 60.621830 36.752201 -37.220741 87.896706 15.155622 34.803024 -40.322124 -21.172428 -5.927495 -28.006983 48.673431 21.529539 98.499443 2.936295 -27.783327 -25.680729 -4.029096 14.595064 -48.998337 -42.827633 1.320256 86.254646 -12.994634 23.296284 -13.153694 1.767529 -10.891309 
-59.713528 32.175068 33.607330 2.504538 12.415794 94.260521 0.000000 0.000000 0.000000 41.208813 12.727131 -8.721292 0.207108 -17.425676 -10.878209 32.637436 18.861879 -15.279473 -3.521967 9.154817 6.304141 -72.009422 -64.792778 2.402220 -76.623299 6.151064 20.172297 19.296192 1.284475 -9.689597 3.089181 -14.089146 8.026228 35.321842 44.411758 -63.190022 94.083282 22.071600 32.956635 -42.678967 -22.651556 -5.208986 -27.363012 46.968628 21.036869 96.655823 3.035371 -26.767780 -24.527948 -3.763123 14.124653 -45.184906 -42.206284 -1.003010 82.293213 -13.123857 23.658451 -12.129634 1.587294 -10.470381 
-59.936657 33.263752 33.282265 2.684802 12.738523 95.500954 0.000000 0.000000 0.000000 41.502350 13.759769 -8.487116 -4.661490 -15.329491 -12.330842 37.675285 17.963076 -15.365556 -3.521967 9.154817 6.304141 -54.492702 -83.300301 -16.605909 -72.757103 4.829268 18.829279 22.551086 -1.149743 -10.301934 3.089181 -14.089146 8.026228 9.238191 44.685444 -89.375534 96.212486 27.507141 29.506104 -43.048996 -22.758142 -5.124747 -26.992188 45.331944 20.660854 94.111496 3.019641 -31.071575 -19.093857 -2.768039 12.859903 -41.246613 -42.056942 -3.087240 78.200066 -13.357442 23.888550 -9.884561 1.305474 -9.758457 
-60.107796 34.537712 33.049366 4.072073 10.578872 96.320488 0.000000 0.000000 0.000000 37.654900 12.916260 -9.660452 -2.706030 -8.802517 -14.609575 35.056087 13.280133 -15.301023 -3.521967 9.154817 6.304141 -104.991402 -94.389725 32.735039 -70.850426 4.092089 20.911057 23.003363 -0.002119 -10.211739 3.089181 -14.089146 8.026228 -6.401212 42.861202 -101.044357 95.799103 29.739149 25.259520 -43.855171 -24.406284 -4.465828 -27.421005 44.153702 22.672459 90.774139 2.399014 -39.948631 -9.704708 -1.484732 10.510432 -40.429352 -42.235703 -3.845764 73.738739 -13.651367 23.088913 -8.127131 1.075648 -9.193609 
-60.159817 35.813164 32.737499 5.251537 6.853981 96.639435 0.000000 0.000000 0.000000 31.385895 12.145486 -11.860842 -0.623403 -7.415444 -13.603305 32.328003 11.968067 -14.200439 -3.521967 9.154817 6.304141 -110.256042 -96.692581 36.664295 -73.520950 1.165273 15.900882 24.662184 -0.844509 -10.521398 3.089181 -14.089146 8.026228 -15.123458 42.667839 -103.109810 94.505226 30.284458 21.267931 -44.161320 -23.741386 -4.664076 -29.100574 43.537975 24.040049 87.651360 1.620412 -46.632648 -2.299421 -0.696410 8.107239 -41.384502 -42.546391 -4.320665 69.066093 -13.735970 21.959480 -5.721125 0.784278 -8.311413 
-59.766388 37.026127 32.211109 5.484553 5.146418 96.646164 0.000000 0.000000 0.000000 27.117208 10.744637 -11.940508 1.362862 -5.844216 -12.969404 29.804781 11.317538 -13.298448 -3.521967 9.154817 6.304141 -91.446777 -96.912056 21.669285 -70.741608 1.685043 16.942673 27.333742 -0.080539 -10.699552 3.089181 -14.089146 8.026228 -12.051738 39.923489 -95.493790 96.416199 29.755159 19.754850 -44.709854 -23.692411 -4.613494 -27.089333 43.764404 24.205784 85.043045 1.923086 -37.095222 -4.006908 -0.747530 7.783048 -39.057281 -42.639820 -6.267839 63.834122 -13.600986 21.532963 -2.453965 0.514400 -7.046828 
-59.121861 38.146774 31.575382 4.523598 5.915705 96.272400 0.000000 0.000000 0.000000 25.577061 9.981255 -11.612179 0.500027 -7.116679 -11.300084 30.366400 12.914679 -12.206869 -3.521967 9.154817 6.304141 -76.483032 -95.233345 13.215170 -67.153282 3.090899 16.867699 29.103071 1.741646 -10.558656 3.089181 -14.089146 8.026228 -2.502053 37.605831 -81.666473 100.167183 28.519726 16.449387 -44.429134 -23.851023 -4.586369 -21.328575 44.803326 24.221245 80.916565 3.072862 -27.053459 -11.295364 -1.468153 9.600464 -33.114517 -41.160946 -9.097036 57.985226 -13.698491 21.342745 -0.000108 0.329751 -6.047249 
-58.636665 39.439419 30.857676 2.804039 6.981396 96.419403 0.000000 0.000000 0.000000 23.632420 9.577718 -12.203861 0.551629 -2.953258 -11.861944 28.786959 9.521682 -11.319735 -3.521967 9.154817 6.304141 34.471172 -93.014824 -89.393677 -62.857925 5.473499 16.438456 29.947313 3.054578 -10.373288 3.089181 -14.089146 8.026228 15.807137 35.254761 -58.831406 102.227158 24.820602 14.073876 -43.723370 -23.515585 -4.796039 -16.084585 45.074577 24.715897 72.520691 4.521139 -26.569157 -11.699080 -1.498763 9.745188 -25.496277 -38.579178 -12.557542 50.173882 -13.475149 21.353689 3.824491 0.064424 -4.649963 
-58.402008 41.050194 29.360361 1.935990 6.032983 98.739304 0.000000 0.000000 0.000000 19.426588 9.104115 -17.174984 3.466272 -1.371472 -10.862537 24.955751 8.883883 -10.171333 -3.521967 9.154817 6.304141 -97.031448 -77.049980 50.116619 -61.306686 7.432304 14.762561 28.912516 3.168880 -10.261199 3.089181 -14.089146 8.026228 37.551582 30.341663 -33.185078 97.173393 18.278654 21.443159 -41.024155 -22.547964 -5.430519 -13.096193 40.508358 24.629946 59.924625 3.247378 -34.276157 -4.781760 -0.866816 8.267216 -17.089752 -37.778851 -16.753231 37.968449 -12.773158 24.041098 11.403150 -0.101825 -1.677777 
-58.513844 42.693848 26.908493 1.022726 3.685099 100.512657 0.000000 0.000000 0.000000 15.210782 10.156029 -21.236433 0.007568 -3.131746 -9.350145 25.303450 10.194566 -9.455685 -3.521967 9.154817 6.304141 -98.736404 -65.793312 58.076736 -56.763268 12.753254 17.568493 27.393299 2.501251 -10.255569 3.089181 -14.089146 8.026228 52.658657 23.499769 -18.598282 84.702484 10.838430 33.916428 -39.100224 -20.176628 -6.339432 -12.041476 34.931580 24.425625 52.018009 1.699208 -28.951424 -5.911197 -0.908203 8.218507 -10.146732 -37.343864 -20.474836 22.349110 -11.016337 28.029631 24.846189 0.923903 5.571165 
-58.937462 44.147221 24.664059 -1.732331 1.812541 99.000587 0.000000 0.000000 0.000000 12.907064 13.363804 -21.003960 -6.982610 -3.159493 -9.477440 25.650227 8.514462 -9.568731 -3.521967 9.154817 6.304141 -105.689026 -54.919933 67.976921 -45.933716 22.880035 23.002710 26.114027 2.239408 -10.182067 3.089181 -14.089146 8.026228 64.073196 20.715328 -13.275401 67.886986 1.994108 45.746975 -34.472267 -17.437294 -7.413927 -13.222836 33.413479 23.720583 51.160572 1.270878 -27.048281 -5.017059 -0.712846 7.021425 -9.580173 -34.921776 -20.418554 12.230064 -9.001275 26.573915 38.824959 4.618228 15.097874 
-59.116600 45.424484 23.071003 -3.872840 0.866137 94.418106 0.000000 0.000000 0.000000 12.982284 15.580599 -17.629181 -11.534035 -1.652341 -10.355940 22.505465 6.660228 -9.792799 -3.521967 9.154817 6.304141 -108.958321 -43.729977 70.664627 -33.935799 32.536709 24.476227 24.762815 2.709135 -10.004946 3.089181 -14.089146 8.026228 76.055466 21.074179 -12.676748 49.153412 -7.690624 52.023567 -31.779034 -15.072786 -8.094630 -10.323007 32.172428 25.546848 48.143414 -0.055449 -22.678858 -3.797032 -0.553992 6.083134 -13.388604 -33.297901 -20.268015 11.996850 -5.817917 20.615898 44.487473 7.214865 20.052561 
-58.797459 46.111053 21.776432 -3.819192 0.464596 89.795006 0.000000 0.000000 0.000000 15.127081 15.106931 -13.368073 -14.277923 0.958663 -10.987875 18.698954 5.082071 -9.098373 -3.521967 9.154817 6.304141 -106.412834 -34.111614 64.634186 -33.534199 34.295200 30.793747 21.563738 3.474740 -9.637860 3.089181 -14.089146 8.026228 86.203835 22.266750 -14.343077 29.251303 -19.341137 56.340996 -34.458199 -14.748955 -8.078836 -4.348441 29.787306 28.369093 43.637810 -2.495882 -17.066492 -9.210831 -0.973174 7.273448 -12.627378 -31.452618 -22.208073 11.437181 -2.000996 28.926838 38.241886 4.760243 15.816261 
-58.661774 46.667179 20.787088 -5.060378 0.335712 86.059181 0.000000 0.000000 0.000000 17.912128 16.845881 -10.921097 -16.551874 2.015283 -10.680199 16.737499 5.391558 -8.367288 -3.521967 9.154817 6.304141 -105.430511 -25.761976 59.104160 -32.812237 36.069618 31.498108 23.757114 0.918735 -10.151124 3.089181 -14.089146 8.026228 90.978073 18.467260 -19.543766 22.921520 -20.729309 61.335453 -35.559216 -13.799006 -8.287872 -2.490610 29.365240 28.725567 43.157730 -3.330985 -14.880155 -8.474792 -0.665706 5.406465 -14.003592 -28.101175 -21.094286 18.255432 -1.816168 23.007711 32.200027 2.880602 12.153665 
-58.438629 47.065605 20.128946 -5.119949 -0.890917 84.080055 0.000000 0.000000 0.000000 17.045721 16.002142 -11.423480 -21.975836 3.035337 -11.344083 17.876749 4.767970 -7.986461 -3.521967 9.154817 6.304141 -103.274506 -16.786522 52.246223 -33.482113 36.538536 31.950975 20.698750 -0.883002 -10.061489 3.089181 -14.089146 8.026228 95.841789 11.975907 -24.131821 21.775627 -18.532499 62.567566 -34.091267 -12.440563 -8.651663 -1.055725 27.996706 28.871967 40.476017 -4.896260 -12.929747 -9.395157 -0.539343 4.216871 -17.245247 -26.118868 -20.348934 29.205643 -2.117785 20.154680 22.545362 1.125586 6.935615 
